<?xml version="1.0" encoding="utf-8"?>
<!-- Svg Vector Icons : http://www.onlinewebfonts.com/icon -->
<!DOCTYPE svg PUBLIC "-//W3C//DTD SVG 1.1//EN" "http://www.w3.org/Graphics/SVG/1.1/DTD/svg11.dtd">
<svg version="1.1" xmlns="http://www.w3.org/2000/svg" xmlns:xlink="http://www.w3.org/1999/xlink" x="0px" y="0px" viewBox="0 0 256 256" enable-background="new 0 0 256 256" xml:space="preserve">
<metadata> Svg Vector Icons : http://www.onlinewebfonts.com/icon </metadata>
<g><g><path fill="#000000" d="M194.9,134.4c14.1-6.9,23.8-21.2,23.8-37.7c0-23.2-19.1-42.1-42.7-42.1c-1.9,0-3.7,0.1-5.5,0.4c2.4,2.9,4.5,6.1,6.2,9.4C194.6,64.7,209,79,209,96.6c0,17.8-14.8,32.4-33,32.4l17.2,15.1c23.8,0.3,43.1,19.3,43.1,42.8v3c0,1.2-0.3,1.7-1.2,2.4c-1.5,1.2-4.2,2.2-7.9,2.9c-3.8,0.7-8.3,1.2-13.2,1.4c-0.1,3.9-1,7.1-2.5,9.8c19.8-0.7,34.5-3.6,34.5-16.5v-3C246,158.6,223.3,135.5,194.9,134.4z"/><path fill="#000000" d="M149.1,132.4c16.1-7.9,27.2-24.2,27.2-43.1c0-26.5-21.9-48.1-48.7-48.1S78.8,62.7,78.8,89.2c0,19,11.3,35.5,27.6,43.3c-30.9,2.8-55.3,28.5-55.3,59.7v3.4c0,8.9,6.1,14.4,18.8,17c10.8,2.2,25.3,2.2,42.1,2.2h34.6c32.7,0,60.9,0,60.9-19.1v-3.4C207.4,160,181.5,133.7,149.1,132.4z M89.9,89.2c0-20.4,16.9-36.9,37.6-36.9c20.8,0,37.6,16.6,37.6,36.9c0,20.4-16.9,37-37.6,37C106.8,126.2,89.9,109.6,89.9,89.2z M196.3,195.7c0,1.3-0.3,2-1.3,2.8c-1.7,1.3-4.8,2.5-9,3.3c-9.9,2-24.3,2-39.4,2h-34.6c-16.2,0-30.2,0-39.9-2c-4-0.8-7-1.9-8.6-3.2c-0.9-0.8-1.3-1.5-1.3-2.9v-3.4c0-26.9,22.3-48.9,49.8-48.9h34.6c27.4,0,49.8,21.9,49.8,48.9L196.3,195.7L196.3,195.7z"/><path fill="#000000" d="M28.8,195.1c-3.7-0.7-6.4-1.7-7.9-2.9c-0.9-0.7-1.2-1.3-1.2-2.4v-3c0-23.4,19.3-42.5,43.1-42.8L80,129c-18.2,0-33-14.5-33-32.4C47,79,61.4,64.7,79.2,64.3c1.8-3.3,3.8-6.5,6.2-9.4c-1.8-0.2-3.6-0.4-5.5-0.4c-23.5,0-42.7,18.9-42.7,42.1c0,16.5,9.7,30.9,23.8,37.7C32.7,135.5,10,158.6,10,186.8v3c0,12.9,14.7,15.9,34.5,16.5c-1.5-2.7-2.4-6-2.5-9.8C37,196.3,32.5,195.9,28.8,195.1z"/></g></g>
</svg>