<svg enable-background="new 0 0 32 32" height="32" viewBox="0 0 32 32" width="32" xmlns="http://www.w3.org/2000/svg"><g clip-rule="evenodd" fill="#1c1c1c" fill-rule="evenodd"><path d="m16 0c-8.837 0-16 7.163-16 16s7.163 16 16 16 16-7.163 16-16-7.163-16-16-16zm0 31c-8.284 0-15-6.716-15-15s6.716-15 15-15 15 6.716 15 15-6.716 15-15 15z"/><path d="m19.37 15.672c.996-.914 1.63-2.214 1.63-3.672 0-2.761-2.239-5-5-5s-5 2.239-5 5c0 1.458.634 2.758 1.63 3.672-3.298 1.334-5.63 4.552-5.63 8.328h18c0-3.776-2.332-6.994-5.63-8.328zm-7.37-3.672c0-2.209 1.791-4 4-4s4 1.791 4 4c0 1.37-.69 2.577-1.74 3.298-.05.034-.106.06-.158.092-.145.09-.295.174-.452.245-.077.035-.158.065-.238.095-.15.057-.304.105-.462.143-.075.018-.149.039-.226.053-.235.044-.476.074-.724.074s-.489-.03-.725-.073c-.077-.014-.151-.035-.226-.053-.158-.039-.312-.087-.462-.143-.08-.03-.16-.06-.238-.095-.157-.071-.307-.155-.452-.245-.052-.032-.108-.058-.158-.092-1.049-.722-1.739-1.929-1.739-3.299zm-3.931 11c.393-3.141 2.604-5.711 5.546-6.631.712.389 1.516.631 2.385.631s1.673-.242 2.385-.631c2.942.92 5.153 3.491 5.546 6.631z"/></g></svg>